<svg width="24" height="24" viewBox="0 0 24 24" fill="none" xmlns="http://www.w3.org/2000/svg">
<path fill-rule="evenodd" clip-rule="evenodd" d="M2.799 5.017C2 6.407 2 8.27 2 12C2 15.73 2 17.593 2.799 18.983C3.32858 19.9059 4.09407 20.6714 5.017 21.201C6.407 22 8.27 22 12 22C15.73 22 17.593 22 18.983 21.201C19.9059 20.6714 20.6714 19.9059 21.201 18.983C22 17.593 22 15.73 22 12C22 8.27 22 6.407 21.201 5.017C20.6714 4.09407 19.9059 3.32858 18.983 2.799C17.593 2 15.73 2 12 2C8.27 2 6.407 2 5.017 2.799C4.09407 3.32858 3.32858 4.09407 2.799 5.017ZM16.192 19.94C15.195 20.03 13.9 20.032 12 20.032C10.1 20.032 8.805 20.03 7.808 19.94C6.838 19.853 6.343 19.694 5.996 19.495C5.37528 19.1386 4.86039 18.6237 4.504 18.003C4.304 17.656 4.146 17.161 4.059 16.191C3.969 15.194 3.967 13.899 3.967 11.999C3.967 10.099 3.969 8.804 4.059 7.807C4.146 6.837 4.305 6.342 4.504 5.995C4.86039 5.37428 5.37528 4.85939 5.996 4.503C6.343 4.303 6.838 4.145 7.808 4.058C8.805 3.968 10.1 3.966 12 3.966C13.9 3.966 15.195 3.968 16.192 4.058C17.162 4.145 17.657 4.304 18.003 4.503C18.624 4.86 19.139 5.375 19.496 5.995C19.695 6.342 19.854 6.837 19.941 7.807C20.031 8.804 20.033 10.099 20.033 11.999C20.033 13.899 20.031 15.194 19.941 16.191C19.854 17.161 19.695 17.656 19.496 18.002C19.1398 18.6231 18.6248 19.1383 18.004 19.495C17.657 19.694 17.162 19.853 16.192 19.94ZM15.868 6.785C15.868 6.42842 16.0097 6.08644 16.2618 5.83429C16.5139 5.58215 16.8559 5.4405 17.2125 5.4405C17.5691 5.4405 17.9111 5.58215 18.1632 5.83429C18.4153 6.08644 18.557 6.42842 18.557 6.785C18.557 7.14145 18.4154 7.4833 18.1634 7.73535C17.9113 7.9874 17.5695 8.129 17.213 8.129C16.8565 8.129 16.5147 7.9874 16.2626 7.73535C16.0106 7.4833 15.869 7.14145 15.869 6.785M12.001 6.785C10.6182 6.785 9.29196 7.33433 8.31415 8.31215C7.33633 9.28996 6.787 10.6162 6.787 11.999C6.787 13.3818 7.33633 14.708 8.31415 15.6859C9.29196 16.6637 10.6182 17.213 12.001 17.213C13.384 17.213 14.7103 16.6636 15.6882 15.6857C16.6661 14.7078 17.2155 13.3815 17.2155 11.9985C17.2155 10.6155 16.6661 9.2892 15.6882 8.31129C14.7103 7.33338 13.384 6.785 12.001 6.785ZM8.886 12C8.886 11.5911 8.96655 11.1861 9.12304 10.8083C9.27953 10.4305 9.50891 10.0872 9.79807 9.79807C10.0872 9.50891 10.4305 9.27953 10.8083 9.12304C11.1861 8.96655 11.5911 8.886 12 8.886C12.4089 8.886 12.8139 8.96655 13.1917 9.12304C13.5695 9.27953 13.9128 9.50891 14.2019 9.79807C14.4911 10.0872 14.7205 10.4305 14.877 10.8083C15.0335 11.1861 15.114 11.5911 15.114 12C15.114 12.8259 14.7859 13.6179 14.2019 14.2019C13.6179 14.7859 12.8259 15.114 12 15.114C11.1741 15.114 10.3821 14.7859 9.79807 14.2019C9.21408 13.6179 8.886 12.8259 8.886 12Z" fill="#95A0B0"/>
</svg>

