<svg width="24" height="24" viewBox="0 0 24 24" fill="none" xmlns="http://www.w3.org/2000/svg">
<path fill-rule="evenodd" clip-rule="evenodd" d="M2 9.111C2 6.622 2 5.377 2.484 4.427C2.90992 3.59017 3.59017 2.90992 4.427 2.484C5.377 2 6.622 2 9.11 2H14.888C17.377 2 18.622 2 19.572 2.484C20.4088 2.90992 21.0891 3.59017 21.515 4.427C22 5.377 22 6.622 22 9.11V14.888C22 17.377 22 18.622 21.516 19.572C21.0901 20.4088 20.4098 21.0891 19.573 21.515C18.623 21.999 17.378 21.999 14.889 21.999H9.11C6.621 21.999 5.376 21.999 4.426 21.515C3.58917 21.0891 2.90892 20.4088 2.483 19.572C2 18.623 2 17.378 2 14.89V9.111ZM7.25 8.716C6.348 8.716 5.725 8.054 5.725 7.246C5.725 6.419 6.316 5.725 7.235 5.725C8.155 5.725 8.695 6.419 8.712 7.245C8.712 8.055 8.059 8.716 7.268 8.716H7.25ZM10.137 9.851C10.172 10.641 10.137 18.275 10.137 18.275H12.754V13.571C12.754 13.319 12.823 13.068 12.894 12.888C13.088 12.385 13.486 11.951 14.228 11.951C15.2 11.951 15.673 12.637 15.673 13.768V18.275H18.275V13.445C18.275 10.539 17.05 9.654 15.282 9.654C13.857 9.654 13.014 10.47 12.65 11.044V9.851H10.137ZM5.909 18.275H8.505V9.851H5.909V18.275Z" fill="#95A0B0"/>
</svg>

