<svg width="118" height="28" viewBox="0 0 118 28" fill="none" xmlns="http://www.w3.org/2000/svg">
<g opacity="0.8">
<path fill-rule="evenodd" clip-rule="evenodd" d="M33.7144 24.4312L33.7142 7.84H36.9174L36.9139 13.0313C37.8552 12.1887 39.02 11.7674 40.4081 11.7674C41.3814 11.7674 42.2349 11.982 42.9689 12.4113C43.7188 12.8247 44.2254 13.405 44.6402 14.1522C45.055 14.8836 45.2572 15.7413 45.2572 16.7271V24.4312H42.0576V17.1993C42.0576 16.3884 41.8281 15.7581 41.3654 15.297C40.9027 14.82 40.2725 14.5816 39.4747 14.5816C38.9162 14.5816 38.4216 14.6929 37.9909 14.9155C37.5601 15.1221 37.2011 15.4242 36.9139 15.8217V24.4312H33.7144ZM77.6925 20.5055V14.4066H80.5683V11.7754H77.6925V7.84H74.4929V11.7867V14.4115V20.5055C74.4929 23.1226 75.8455 24.4312 78.5505 24.4312H80.5683V21.7999H79.0775C78.5888 21.7999 78.2371 21.6466 78.0235 21.4641C77.8243 21.2662 77.6925 20.9315 77.6925 20.5055ZM64.2425 24.092C65.0673 24.4573 65.999 24.6399 67.0377 24.6399C68.0458 24.6399 68.9238 24.4801 69.6727 24.1605C70.436 23.8257 71.0168 23.3691 71.414 22.7907C71.8262 22.2124 72.0325 21.558 72.0325 20.8275C72.017 19.9904 71.7879 19.3207 71.3452 18.8185C70.9175 18.301 70.4055 17.9205 69.8097 17.677C69.2145 17.4335 68.4584 17.1975 67.5417 16.9693C66.6406 16.741 65.9761 16.5203 65.5485 16.3073C65.1208 16.0789 64.9069 15.7517 64.9069 15.3256C64.9069 14.9451 65.0597 14.6483 65.3651 14.4352C65.6859 14.2221 66.1365 14.1156 66.717 14.1156C67.3432 14.1156 67.8396 14.2678 68.206 14.5722C68.5882 14.8614 68.8018 15.2571 68.8478 15.7593H71.9177C71.8262 14.4809 71.3297 13.4688 70.4288 12.7231C69.5274 11.962 68.3209 11.5816 66.8086 11.5816C65.7852 11.5816 64.8917 11.749 64.1279 12.0838C63.3795 12.4187 62.7991 12.8752 62.3867 13.4536C61.9896 14.0319 61.791 14.6711 61.791 15.3712C61.791 16.2235 62.0048 16.9008 62.4325 17.4031C62.8755 17.9053 63.3948 18.2782 63.9905 18.5217C64.6014 18.7652 65.3805 19.0011 66.3274 19.2294C67.2439 19.4729 67.9083 19.7012 68.3209 19.9143C68.7486 20.1121 68.9621 20.4165 68.9621 20.8275C68.9621 21.2079 68.7868 21.5199 68.4351 21.7634C68.0995 22.0069 67.6258 22.1287 67.0148 22.1287C66.3886 22.1287 65.8616 21.9689 65.4339 21.6493C65.0215 21.3297 64.7847 20.9263 64.7237 20.4393H61.4931C61.539 21.2155 61.7986 21.9233 62.2722 22.5625C62.7609 23.2017 63.4177 23.7115 64.2425 24.092ZM91.593 24.4428H94.7927V15.8217C95.0802 15.4242 95.4391 15.1221 95.87 14.9154C96.3003 14.6928 96.7949 14.5815 97.3537 14.5815C98.1513 14.5815 98.7815 14.82 99.2442 15.297C99.707 15.7581 99.9367 16.3884 99.9367 17.1993V24.4311H103.136V16.7271C103.136 15.7413 102.934 14.8836 102.519 14.1522C102.104 13.405 101.598 12.8247 100.848 12.4113C100.114 11.982 99.2604 11.7674 98.2869 11.7674C96.8987 11.7674 95.87 12.197 94.7362 12.9425C94.3929 13.1684 94.0067 13.4691 93.8282 13.6113C93.4791 13.1242 93.0579 12.728 92.5043 12.4229C91.7702 11.9937 90.9168 11.779 89.9439 11.779C88.5557 11.779 87.3907 12.2003 86.4496 13.043L86.4529 11.787H83.25V24.4428H86.4496V15.8333C86.7365 15.4358 87.0954 15.1338 87.5263 14.927C87.9573 14.7044 88.4518 14.5931 89.01 14.5931C89.8083 14.5931 90.4384 14.8316 90.9012 15.3086C91.3639 15.7697 91.593 16.4001 91.593 17.2109V24.4428ZM53.6031 24.64C57.222 24.64 60.1557 21.7168 60.1557 18.1109C60.1557 14.5049 57.222 11.5818 53.6031 11.5818C49.9843 11.5818 47.0505 14.5049 47.0505 18.1109C47.0505 21.7168 49.9843 24.64 53.6031 24.64ZM53.6021 21.4529C55.4542 21.4529 56.9557 19.9568 56.9557 18.1114C56.9557 16.2659 55.4542 14.7698 53.6021 14.7698C51.75 14.7698 50.2486 16.2659 50.2486 18.1114C50.2486 19.9568 51.75 21.4529 53.6021 21.4529ZM111.447 24.6399C114.924 24.6399 116.779 22.7581 117.713 20.799H114.446C113.857 21.4107 113.034 21.8267 112.097 21.9127C110.198 22.0869 108.516 20.8465 108.222 19.1064L108.221 19.104H117.925C117.974 18.7801 118 18.4484 118 18.1108C118 14.5049 115.066 11.5817 111.447 11.5817C107.828 11.5817 104.894 14.5049 104.894 18.1108C104.894 21.7167 107.828 24.6399 111.447 24.6399ZM111.448 14.4014C109.974 14.4014 108.511 15.4643 108.221 17.0456H114.622C114.382 15.4771 113.017 14.4014 111.448 14.4014Z" fill="#576071"/>
<path d="M12.081 0V11.6667C12.081 12.9553 13.1211 14 14.4042 14C15.636 14 16.6439 13.0372 16.7225 11.8201L16.7275 11.6667L16.7276 3.66215L17.1964 4.11964C17.275 4.19748 17.3538 4.27611 17.4328 4.35548L17.908 4.84046C17.9874 4.92271 18.0668 5.00564 18.1461 5.08924L18.6219 5.59854L19.0947 6.12227L19.562 6.65903C22.0351 9.554 24.1619 12.9446 24.1619 15.8667C24.1619 22.5677 18.7531 28 12.081 28C5.40883 28 0 22.5677 0 15.8667C0 13.0675 1.95174 9.83827 4.28993 7.02672L4.71896 6.52032C4.79106 6.43675 4.86343 6.35361 4.93602 6.27092L5.37391 5.78045L5.81509 5.30202L6.25748 4.83675L6.69897 4.38578L7.13747 3.95025L7.57091 3.53128L7.99718 3.13L8.4142 2.74756L8.81987 2.38507L9.21211 2.04368L9.58882 1.72452L9.94791 1.42871L10.4489 1.03128L10.7549 0.798817L11.1663 0.50171L11.406 0.339677L11.6154 0.207795C11.8414 0.071962 12.0016 0 12.081 0ZM9.10718 6.19267L8.72147 6.57876C8.43656 6.86734 8.15459 7.16135 7.87844 7.45847C4.82227 10.7466 2.97377 13.8806 2.97377 15.8667C2.97377 20.9182 7.0512 25.0133 12.081 25.0133C17.1107 25.0133 21.1881 20.9182 21.1881 15.8667C21.1881 14.8201 20.6824 13.4777 19.7855 11.984L19.6966 11.8393L19.6947 11.9167L19.6901 12.0135C19.5097 14.8049 17.2005 16.9867 14.4042 16.9867C11.5468 16.9867 9.21778 14.7143 9.111 11.8707L9.10718 11.6667V6.19267Z" fill="#576071"/>
</g>
</svg>

