<svg width="126" height="30" viewBox="0 0 126 30" fill="none" xmlns="http://www.w3.org/2000/svg">
<path fill-rule="evenodd" clip-rule="evenodd" d="M36.0001 26.1763L36 8.40002H39.4203L39.4165 13.9622C40.4218 13.0594 41.6654 12.6079 43.1477 12.6079C44.1869 12.6079 45.0984 12.8379 45.8821 13.2978C46.6829 13.7407 47.2238 14.3625 47.6668 15.1631C48.1097 15.9468 48.3255 16.8657 48.3255 17.922V26.1763H44.909V18.4278C44.909 17.559 44.6639 16.8837 44.1699 16.3897C43.6759 15.8786 43.0029 15.6231 42.151 15.6231C41.5547 15.6231 41.0265 15.7424 40.5666 15.9809C40.1066 16.2023 39.7233 16.526 39.4165 16.9518V26.1763H36.0001ZM82.9599 21.9702V15.4357H86.0306V12.6165H82.9599V8.40002H79.5434V12.6287V15.4409V21.9702C79.5434 24.7743 80.9876 26.1763 83.8761 26.1763H86.0306V23.3571H84.4388C83.917 23.3571 83.5413 23.1928 83.3133 22.9972C83.1006 22.7853 82.9599 22.4266 82.9599 21.9702ZM68.598 25.8129C69.4787 26.2043 70.4736 26.4 71.5827 26.4C72.6591 26.4 73.5966 26.2287 74.3964 25.8863C75.2114 25.5276 75.8316 25.0383 76.2557 24.4187C76.6958 23.799 76.9162 23.0978 76.9162 22.3152C76.8995 21.4183 76.6549 20.7008 76.1823 20.1627C75.7256 19.6082 75.1788 19.2005 74.5426 18.9397C73.9071 18.6787 73.0998 18.426 72.1209 18.1814C71.1586 17.9368 70.4491 17.7004 69.9925 17.4721C69.5358 17.2274 69.3075 16.8769 69.3075 16.4203C69.3075 16.0126 69.4706 15.6946 69.7967 15.4663C70.1393 15.238 70.6204 15.1239 71.2402 15.1239C71.9089 15.1239 72.439 15.287 72.8302 15.6131C73.2384 15.9229 73.4664 16.3469 73.5156 16.885H76.7935C76.6958 15.5153 76.1656 14.4309 75.2037 13.6319C74.2411 12.8165 72.9528 12.4089 71.3381 12.4089C70.2453 12.4089 69.2912 12.5882 68.4756 12.947C67.6765 13.3057 67.0567 13.7949 66.6164 14.4146C66.1923 15.0342 65.9803 15.7191 65.9803 16.4692C65.9803 17.3824 66.2086 18.108 66.6653 18.6462C67.1383 19.1843 67.6928 19.5838 68.3289 19.8447C68.9813 20.1056 69.8131 20.3583 70.8243 20.6029C71.8029 20.8639 72.5124 21.1084 72.9528 21.3367C73.4095 21.5487 73.6375 21.8748 73.6375 22.3152C73.6375 22.7228 73.4504 23.0571 73.0748 23.318C72.7165 23.5789 72.2106 23.7094 71.5582 23.7094C70.8895 23.7094 70.3268 23.5382 69.8702 23.1957C69.4298 22.8533 69.177 22.4211 69.1118 21.8993H65.6622C65.7112 22.731 65.9884 23.4892 66.494 24.1741C67.016 24.859 67.7173 25.4053 68.598 25.8129ZM97.8028 26.1888H101.219V16.9518C101.526 16.526 101.91 16.2023 102.37 15.9808C102.829 15.7423 103.357 15.6231 103.954 15.6231C104.806 15.6231 105.479 15.8786 105.973 16.3897C106.467 16.8837 106.712 17.559 106.712 18.4278V26.1762H110.129V17.9219C110.129 16.8657 109.912 15.9468 109.47 15.1631C109.027 14.3625 108.486 13.7407 107.685 13.2978C106.901 12.8379 105.99 12.6079 104.951 12.6079C103.468 12.6079 102.37 13.0683 101.159 13.867C100.792 14.109 100.38 14.4312 100.19 14.5835C99.8167 14.0617 99.3669 13.6372 98.7758 13.3103C97.992 12.8504 97.0807 12.6203 96.0419 12.6203C94.5595 12.6203 93.3156 13.0718 92.3107 13.9746L92.3142 12.6289H88.8941V26.1888H92.3107V16.9643C92.617 16.5384 93.0002 16.2148 93.4604 15.9933C93.9206 15.7548 94.4486 15.6355 95.0446 15.6355C95.897 15.6355 96.5699 15.8911 97.064 16.4021C97.5582 16.8962 97.8028 17.5715 97.8028 18.4403V26.1888ZM57.2373 26.4C61.1015 26.4 64.2341 23.2681 64.2341 19.4046C64.2341 15.541 61.1015 12.4091 57.2373 12.4091C53.3731 12.4091 50.2405 15.541 50.2405 19.4046C50.2405 23.2681 53.3731 26.4 57.2373 26.4ZM57.2362 22.9852C59.2139 22.9852 60.8171 21.3823 60.8171 19.4051C60.8171 17.4277 59.2139 15.8248 57.2362 15.8248C55.2585 15.8248 53.6553 17.4277 53.6553 19.4051C53.6553 21.3823 55.2585 22.9852 57.2362 22.9852ZM119.003 26.4C122.716 26.4 124.696 24.3837 125.694 22.2847H122.205C121.577 22.9401 120.698 23.3858 119.696 23.478C117.669 23.6645 115.873 22.3356 115.559 20.4711L115.558 20.4686H125.92C125.972 20.1216 126 19.7662 126 19.4045C126 15.541 122.867 12.4089 119.003 12.4089C115.138 12.4089 112.006 15.541 112.006 19.4045C112.006 23.2679 115.138 26.4 119.003 26.4ZM119.003 15.4301C117.43 15.4301 115.868 16.5689 115.558 18.2632H122.394C122.136 16.5826 120.679 15.4301 119.003 15.4301Z" fill="#16191C"/>
<path d="M12.9 0V12.5C12.9 13.8807 14.0107 15 15.3808 15C16.6961 15 17.7723 13.9685 17.8563 12.6644L17.8615 12.5L17.8617 3.92373L18.3623 4.4139C18.4462 4.4973 18.5304 4.58154 18.6147 4.66658L19.1221 5.1862C19.2068 5.27433 19.2916 5.36319 19.3764 5.45276L19.8844 5.99843L20.3893 6.55957L20.8883 7.13468C23.529 10.2364 25.8 13.8693 25.8 17C25.8 24.1797 20.0245 30 12.9 30C5.77553 30 0 24.1797 0 17C0 14.0009 2.08406 10.541 4.58077 7.52863L5.03889 6.98606C5.11588 6.89652 5.19316 6.80744 5.27067 6.71885L5.73825 6.19334L6.20934 5.68073L6.68171 5.18223L7.15313 4.69905L7.62137 4.23241L8.08419 3.78351L8.53936 3.35358L8.98465 2.94381L9.41783 2.55544L9.83666 2.18966L10.2389 1.8477L10.6223 1.53076L11.1574 1.10494L11.484 0.855875L11.9233 0.537546L12.1792 0.363939L12.4029 0.222638C12.6443 0.0771022 12.8153 0 12.9 0ZM9.72462 6.635L9.31275 7.04867C9.00853 7.35786 8.70744 7.67288 8.41257 7.99121C5.1492 11.5142 3.17538 14.8721 3.17538 17C3.17538 22.4124 7.52924 26.8 12.9 26.8C18.2708 26.8 22.6246 22.4124 22.6246 17C22.6246 15.8787 22.0846 14.4403 21.1269 12.84L21.032 12.685L21.03 12.7678L21.025 12.8716C20.8324 15.8624 18.3666 18.2 15.3808 18.2C12.3296 18.2 9.84272 15.7653 9.7287 12.7186L9.72462 12.5V6.635Z" fill="#DD7352"/>
</svg>

