<svg width="24" height="24" viewBox="0 0 24 24" fill="none" xmlns="http://www.w3.org/2000/svg">
<g clip-path="url(#clip0_3_66)">
<path d="M0 0H24V24H0V0Z" fill="white" fill-opacity="0.01"/>
<path d="M19.825 5.428C20.682 5.659 21.358 6.334 21.588 7.191C22.017 8.756 22 12.018 22 12.018C22 12.018 22 15.264 21.588 16.828C21.4743 17.2506 21.2516 17.636 20.9422 17.9455C20.6328 18.2551 20.2476 18.478 19.825 18.592C18.26 19.003 12 19.003 12 19.003C12 19.003 5.756 19.003 4.175 18.575C3.75256 18.4611 3.36741 18.2383 3.05804 17.929C2.74866 17.6196 2.5259 17.2344 2.412 16.812C2 15.264 2 12.002 2 12.002C2 12.002 2 8.756 2.412 7.192C2.52872 6.7691 2.75216 6.3833 3.06088 6.0716C3.3696 5.7599 3.75324 5.53277 4.175 5.412C5.74 5 12 5 12 5C12 5 18.26 5 19.825 5.428ZM10.007 9.003V15L15.213 12.002L10.007 9.003Z" fill="#95A0B0"/>
</g>
<defs>
<clipPath id="clip0_3_66">
<rect width="24" height="24" fill="white"/>
</clipPath>
</defs>
</svg>

