<svg preserveAspectRatio="none" width="100%" height="100%" overflow="visible" style="display: block;" viewBox="0 0 24 24" fill="none" xmlns="http://www.w3.org/2000/svg">
<g id="icon/social-net/hostme" clip-path="url(#clip0_2090_725)">
<path id="Subtract" d="M12 0C18.6274 0 24 5.37258 24 12C24 18.6274 18.6274 24 12 24C5.37258 24 0 18.6274 0 12C0 5.37258 5.37258 0 12 0ZM11.8369 4.05371C11.7948 4.05377 11.7096 4.09187 11.5898 4.16406L11.4795 4.23438L11.3525 4.32031L11.1338 4.47852L10.9717 4.60254L10.7061 4.81348L10.5156 4.9707L10.3164 5.14062L10.1084 5.32227L9.89355 5.51562L9.67188 5.71875L9.44629 5.93164L9.2168 6.15527L8.98438 6.38672L8.75 6.62598L8.51562 6.87402L8.28125 7.12793L8.0498 7.38965C8.01143 7.4335 7.97268 7.47716 7.93457 7.52148L7.70703 7.79102C6.46758 9.28646 5.43267 11.0043 5.43262 12.4932C5.43262 16.0575 8.30004 18.9472 11.8369 18.9473C15.3738 18.9473 18.2412 16.0575 18.2412 12.4932C18.2412 10.939 17.1137 9.13551 15.8027 7.5957L15.5547 7.31055L15.3047 7.03125L15.0518 6.76074C15.0097 6.71634 14.9678 6.67161 14.9258 6.62793L14.6738 6.37012C14.6321 6.32803 14.5904 6.2864 14.5488 6.24512L14.2998 6.00195V10.2598L14.2979 10.3408C14.2562 10.9882 13.7213 11.5 13.0684 11.5C12.3884 11.4999 11.8372 10.9449 11.8369 10.2598V4.05371ZM10.2607 10.2598L10.2627 10.3682C10.3195 11.8805 11.5538 13.0888 13.0684 13.0889C14.5507 13.0889 15.7755 11.9281 15.8711 10.4434L15.873 10.3926L15.874 10.3516L15.9209 10.4277C16.3963 11.2222 16.665 11.9365 16.665 12.4932C16.665 15.1801 14.5032 17.3584 11.8369 17.3584C9.17067 17.3583 7.00879 15.1801 7.00879 12.4932C7.00887 11.4368 7.98935 9.76943 9.60938 8.02051C9.75565 7.8626 9.90476 7.7061 10.0557 7.55273L10.2607 7.34766V10.2598Z" fill="var(--fill-0, #666666)"/>
</g>
<defs>
<clipPath id="clip0_2090_725">
<rect width="24" height="24" fill="white"/>
</clipPath>
</defs>
</svg>
