<svg preserveAspectRatio="none" width="100%" height="100%" overflow="visible" style="display: block;" viewBox="0 0 24 24" fill="none" xmlns="http://www.w3.org/2000/svg">
<g id="icon/social-net/whatsapp" clip-path="url(#clip0_2090_734)">
<g id="Subtract">
<path fill-rule="evenodd" clip-rule="evenodd" d="M11.3623 6.26172C12.6776 6.05801 14.0235 6.2958 15.1885 6.9375C16.3536 7.57923 17.2715 8.58867 17.7983 9.80713C18.3251 11.0255 18.4308 12.3837 18.0986 13.6685C17.7665 14.9532 17.0157 16.0918 15.9639 16.9048C14.9119 17.7178 13.6183 18.1595 12.2871 18.1602H12.2847C11.2095 18.1601 10.1542 17.8717 9.229 17.3257L9.00928 17.1924L6.73291 17.7861L7.34082 15.5825L7.19873 15.3574C6.49098 14.2337 6.1782 12.9073 6.30908 11.5869C6.43996 10.2666 7.00721 9.02692 7.92188 8.06299C8.83658 7.09909 10.047 6.46549 11.3623 6.26172ZM9.72852 8.85986C9.6371 8.86229 9.54711 8.88401 9.46436 8.92285C9.38166 8.96165 9.30769 9.01681 9.24756 9.08545C9.04405 9.27568 8.88236 9.50608 8.77246 9.76172C8.66253 10.0174 8.60674 10.2932 8.60889 10.5713C8.60898 11.4574 9.25541 12.3061 9.34521 12.4316C9.43493 12.5571 10.6189 14.3695 12.4253 15.1489C12.761 15.2935 13.1043 15.42 13.4536 15.5278C13.8219 15.6391 14.2111 15.6633 14.5903 15.5986C14.9372 15.5466 15.6618 15.1636 15.8091 14.7432C15.9563 14.3228 15.9592 13.9625 15.915 13.8877C15.8708 13.813 15.7583 13.7676 15.5723 13.6782C15.3929 13.5875 14.5011 13.1524 14.3389 13.0923C14.1769 13.0322 14.0535 13.0029 13.937 13.1831C13.8205 13.3633 13.471 13.7676 13.3652 13.8877C13.2594 14.0078 13.1549 14.0212 12.9741 13.9331C12.4431 13.7232 11.9524 13.4234 11.5239 13.0469C11.1295 12.6828 10.791 12.2627 10.5195 11.8003C10.4152 11.6202 10.5089 11.5225 10.5986 11.4331C10.6883 11.3437 10.7797 11.2236 10.8667 11.1182C10.9407 11.0273 11.0011 10.926 11.0459 10.8179C11.07 10.7684 11.0812 10.7137 11.0786 10.6587C11.076 10.6037 11.0599 10.55 11.0312 10.5029C10.9869 10.4118 10.6296 9.52743 10.4756 9.16846C10.3216 8.80941 10.1795 8.86519 10.0737 8.85986C9.96803 8.85451 9.84892 8.85986 9.72852 8.85986Z" fill="var(--fill-0, #666666)"/>
<path fill-rule="evenodd" clip-rule="evenodd" d="M12 0C18.6273 1.28852e-05 23.9999 5.37222 24 11.9995C24 18.6269 18.6274 23.9995 12 23.9995C5.3726 23.9995 0 18.6269 0 11.9995C8.40105e-05 5.37222 5.37265 0 12 0ZM12.7646 5.01416C11.0214 4.90479 9.29739 5.42816 7.91113 6.4873C6.52487 7.54647 5.56996 9.07011 5.22314 10.7764C4.87639 12.4826 5.16108 14.2562 6.02441 15.7695L5 19.5L8.82959 18.499C9.88854 19.0745 11.0756 19.3761 12.2817 19.376C13.7096 19.3734 15.105 18.9494 16.2915 18.1577C17.478 17.3661 18.4027 16.242 18.9492 14.9272C19.4957 13.6125 19.6395 12.1656 19.3623 10.7695C19.0851 9.37362 18.3997 8.09071 17.3921 7.08252H17.3945C16.1525 5.85845 14.5079 5.12354 12.7646 5.01416Z" fill="var(--fill-0, #666666)"/>
</g>
</g>
<defs>
<clipPath id="clip0_2090_734">
<rect width="24" height="24" fill="white"/>
</clipPath>
</defs>
</svg>
