<svg preserveAspectRatio="none" width="100%" height="100%" overflow="visible" style="display: block;" viewBox="0 0 24 24" fill="none" xmlns="http://www.w3.org/2000/svg">
<g id="icon/social-net/x" clip-path="url(#clip0_2090_716)">
<g id="Subtract">
<path d="M16.853 18.1538H15.1265L7.16309 6.84619H8.88916L16.853 18.1538Z" fill="var(--fill-0, #666666)"/>
<path fill-rule="evenodd" clip-rule="evenodd" d="M12.0005 0C18.627 7.16061e-05 24 5.3732 24 12.0005C23.9999 18.6279 18.6272 23.9999 12.0005 24C5.37297 24 7.21709e-05 18.628 0 12.0005C0 5.37292 5.37292 0 12.0005 0ZM10.5918 13.2085L5.5 19H6.60449L11.084 13.9072L14.6714 19H18.5L13.2104 11.4897L18.0391 6H16.9346L15.9888 7.06982L12.7178 10.7905L9.34375 6H5.51514L10.5918 13.2085Z" fill="var(--fill-0, #666666)"/>
</g>
</g>
<defs>
<clipPath id="clip0_2090_716">
<rect width="24" height="24" fill="white"/>
</clipPath>
</defs>
</svg>
