<svg preserveAspectRatio="none" width="100%" height="100%" overflow="visible" style="display: block;" viewBox="0 0 24 24" fill="none" xmlns="http://www.w3.org/2000/svg">
<g id="icon/social-net/telegram" clip-path="url(#clip0_2090_719)">
<path id="Subtract" fill-rule="evenodd" clip-rule="evenodd" d="M12 0C18.6274 0 24 5.37258 24 12C24 18.6274 18.6274 24 12 24C5.37258 24 0 18.6274 0 12C5.15406e-07 5.37258 5.37258 5.1544e-07 12 0ZM18.4502 7.19971C18.5634 5.91651 17.2046 6.44482 17.2046 6.44482C17.1763 6.45642 14.2572 7.65409 13.3931 8.02979C11.1346 8.97084 4.63373 11.6386 4.59912 11.6528C3.05173 12.2567 3.95752 12.8232 3.95752 12.8232C3.97208 12.8282 5.28462 13.278 6.41064 13.6157C7.54288 13.9554 8.14697 13.5781 8.14697 13.5781C8.15827 13.5707 10.7943 11.8376 13.4683 9.99219C15.3551 8.70914 14.9026 9.76575 14.4497 10.2188C13.4685 11.2 11.8455 12.7477 10.4868 13.9932C9.88301 14.5216 10.185 14.9743 10.4492 15.2007C11.4304 16.0309 14.1087 17.7289 14.2607 17.8428C14.4494 17.9937 15.5064 18.6729 16.1479 18.522C16.7896 18.371 16.8652 17.5029 16.8652 17.5029C16.8687 17.4813 17.3573 14.3984 17.8086 11.5776C18.1104 9.57759 18.4124 7.72839 18.4502 7.19971Z" fill="var(--fill-0, #666666)"/>
</g>
<defs>
<clipPath id="clip0_2090_719">
<rect width="24" height="24" fill="white"/>
</clipPath>
</defs>
</svg>
